#!OML:ASF F:\VICON\USERDATA\INSTALL\rory3\rory3.ASF
:FULLY-SPECIFIED
:DEGREES
48
root 0.5124219439358284 17.874787987430008 21.443385848438158 -3.5982871606733897 3.567549907637116 -1.529508614749948
lfemur 9.978693924576238 -5.278759375360504 -17.44523431602606
ltibia 28.90697891872755
lfoot 23.14904974907044 -21.862843848836203
ltoes -31.615314638722968
rfemur -21.778174854765417 -1.3006329738506368 27.04871859881789
rtibia 31.979991071306188
rfoot 7.885888441348324 -6.481058622315078
rtoes 0.9231281017850077
lowerback -1.0 -2.32039038517967 -0.5658556270384933
upperback -0.5308343014210433 -1.4692011380515178 3.0412093557966253
thorax -6.0385437952244185 -1.1219330391913385 4.319677903010647
lowerneck -17.105782274472393 -3.7767302895036683 -2.544279707656983
upperneck 20.34378498247042 -5.032166624108057 3.070569274239131
head 9.180986252513383 -2.1738654618693363 0.7563478615560906
lclavicle -1.679487461475959e-14 3.9786157601224e-14
lhumerus -24.321040191818632 -0.898470298192604 82.04999290332671
lradius 34.260830491023945
lwrist 10.430892486033706
lhand -31.619030157556054 14.463650192715953
lfingers nan
lthumb -4.55889750927869 45.59601246446493
rclavicle -1.6646429377135652e-14 4.099433510153498e-14
rhumerus -44.220485790227926 -35.365475356668135 -64.77439834202542
rradius 20.73372995520142
rwrist 10.378290790192452
rhand -20.06502033185455 -1.0
rfingers nan
rthumb 6.600171410975061 -6.349921912464399
49
root 0.4385327828526448 17.95382183098521 22.59934301638956 -4.043309755935214 3.6414244723519555 -2.6847636234366994
lfemur 4.339561929640483 -5.428451180026125 -14.810863883669043
ltibia 37.76487216873099
lfoot 26.86350371384481 -22.484967030655184
ltoes -14.893754244169074
rfemur -18.574838249197708 -0.51013351859801 29.626027816891384
rtibia 31.29052457236572
rfoot 7.129210416148559 -7.5815546386635715
rtoes 1.9648217681909148
lowerback -1.0 -2.1597657181184027 0.6383536361861987
upperback -0.40795298644853867 -1.1057679758179038 3.409846131697707
thorax -6.188442546404785 -0.9765592645788685 3.9673860661724536
lowerneck -17.16900751335918 -3.9671294072804466 -2.5173903493603547
upperneck 20.197933454780426 -5.449148015299752 3.3852116837425905
head 9.132135234622966 -2.287326169164259 0.8158011242363252
lclavicle 2.1713777599259608e-14 -5.739376354143099e-15
lhumerus -25.514831957138032 -0.802100552991615 82.57407117605742
lradius 33.90056714711657
lwrist 10.91434463093944
lhand -32.448956433448075 15.85883580176289
lfingers nan
lthumb -5.353108649578692 47.011110729430044
rclavicle 2.1423103744470874e-14 -4.870886080077406e-15
rhumerus -44.1274972818295 -35.08396875561057 -65.24268657847216
rradius 20.711919961906943
rwrist 10.397439456482145
rhand -19.09646904343175 -1.0
rfingers nan
rthumb 7.551945455946711 -5.428206034825856
50
root 0.37662037093809514 17.997154181670012 23.526467491539712 -3.944749190055189 3.339794180807145 -3.4491512641090285
lfemur -2.1009900821221823 -4.667071352354837 -13.026484313726431
ltibia 46.27670517693263
lfoot 22.599183451969513 -18.956659147402164
ltoes -16.700351844958483
rfemur -16.217140557019192 -0.5506831479729968 31.62147989456726
rtibia 30.68020961612358
rfoot 5.548465252087811 -8.452371312850397
rtoes 2.3333942244276744
lowerback -1.0 -1.7942015606888706 1.4565956627702867
upperback -0.3585506594775298 -0.5269820690774116 3.477762552075622
thorax -6.127235864618443 -0.7002348444457076 3.467449328479576
lowerneck -16.60139577413192 -4.226328265359589 -2.642019987012879
upperneck 19.8918704579488 -5.946588325364335 3.7940946114456624
head 8.947557195276369 -2.435460981345888 0.9492875271887125
lclavicle -4.181239904834714e-14 2.205049365454695e-14
lhumerus -26.232232975835043 -1.3799386355271657 83.30205991836615
lradius 33.29634702897546
lwrist 11.126467416440951
lhand -31.696733540825914 19.95478893283691
lfingers nan
lthumb -4.6192312752308595 51.16668061389633
rclavicle -4.268257364621624e-14 2.2819247473168213e-14
rhumerus -42.61285923565683 -32.947254629002366 -67.59751363455177
rradius 20.836892368753347
rwrist 9.607963225984804
rhand -21.190512663778748 -1.0
rfingers nan
rthumb 5.504393847642803 -8.830015702841676
51
root 0.33631222002239847 18.027674653506512 24.307935335452157 -3.9598359004927577 2.956162745083998 -3.437610334602737
lfemur -7.325459255871652 -3.661355308791955 -13.030070355855479
ltibia 52.04768051638167
lfoot 12.96141517818242 -14.272301734085687
ltoes -24.51824201257639
rfemur -14.206187409070058 -0.6668113491986531 31.995158090073815
rtibia 30.805276706729515
rfoot 3.828312542292365 -8.301478311347573
rtoes 2.1114850571185464
lowerback -1.0 -1.3452367415703883 1.5536186196457638
upperback -0.30081057898676294 -0.0619927718009714 3.061344854604328
thorax -6.1652429554716495 -0.4329427418186177 2.9899428860242847
lowerneck -16.788444080590473 -4.186710756762251 -2.4047293753408066
upperneck 20.066226243149735 -6.005451165619896 3.7890439782053336
head 9.042434684033507 -2.4141220802745447 0.9293031651684696
lclavicle 1.597180959994986e-14 -1.6549329468619937e-14
lhumerus -27.076688616045637 -1.3985565784098566 83.60448273039098
lradius 32.24564513733636
lwrist 10.53056008105537
lhand -29.50095550451989 22.256451278659412
lfingers nan
lthumb -2.495086792699656 53.50553122278597
rclavicle 1.4722992953973923e-14 -1.6139703076086374e-14
rhumerus -41.13240039339307 -31.197532696048427 -69.46676860321595
rradius 21.3434444296293
rwrist 8.96537175322417
rhand -18.789507910077766 -1.0
rfingers nan
rthumb 7.817836518759237 -6.597277755000378
